inDegrees=no
num_controls=7
num_derivatives=13
num_iterations=17
num_multipliers=7
num_parameters=0
num_slacks=7
num_states=26
objective=0.512723
objective_accelerations=0.000000
objective_balance=0.005669
objective_effort=0.021887
objective_height=0.476968
objective_ligament=0.008200
solver_duration=209.276372
status=Solve_Succeeded
success=true
DataType=double
version=3
OpenSimVersion=4.5
endheader
time	/jointset/ground_pelvis/pelvis_tilt/value	/jointset/ground_pelvis/pelvis_tx/value	/jointset/ground_pelvis/pelvis_ty/value	/jointset/hip_r/hip_flexion_r/value	/jointset/hip_r/hip_adduction_r/value	/jointset/hip_r/hip_rotation_r/value	/jointset/back/lumbar_extension/value	/jointset/patellofemoral_r/patellar_flexion_r/value	/jointset/knee_r/knee_flexion_r/value	/jointset/knee_r/knee_adduction_r/value	/jointset/knee_r/knee_rotation_r/value	/jointset/ankle_r/ankle_angle_r/value	/jointset/subtalar_r/subtalar_angle_r/value	/jointset/ground_pelvis/pelvis_tilt/speed	/jointset/ground_pelvis/pelvis_tx/speed	/jointset/ground_pelvis/pelvis_ty/speed	/jointset/hip_r/hip_flexion_r/speed	/jointset/hip_r/hip_adduction_r/speed	/jointset/hip_r/hip_rotation_r/speed	/jointset/back/lumbar_extension/speed	/jointset/patellofemoral_r/patellar_flexion_r/speed	/jointset/knee_r/knee_flexion_r/speed	/jointset/knee_r/knee_adduction_r/speed	/jointset/knee_r/knee_rotation_r/speed	/jointset/ankle_r/ankle_angle_r/speed	/jointset/subtalar_r/subtalar_angle_r/speed	/forceset/tau_hip_flexion_r	/forceset/tau_hip_adduction_r	/forceset/tau_hip_rotation_r	/forceset/tau_knee_flexion_r	/forceset/tau_ankle_angle_r	/forceset/tau_subtalar_angle_r	/forceset/tau_lumbar_extension	lambda_cid13_p0	lambda_cid14_p0	lambda_cid14_p1	lambda_cid14_p2	lambda_cid14_p3	lambda_cid14_p4	lambda_cid14_p5	/jointset/ground_pelvis/pelvis_tilt/accel	/jointset/ground_pelvis/pelvis_tx/accel	/jointset/ground_pelvis/pelvis_ty/accel	/jointset/hip_r/hip_flexion_r/accel	/jointset/hip_r/hip_adduction_r/accel	/jointset/hip_r/hip_rotation_r/accel	/jointset/back/lumbar_extension/accel	/jointset/patellofemoral_r/patellar_flexion_r/accel	/jointset/knee_r/knee_flexion_r/accel	/jointset/knee_r/knee_adduction_r/accel	/jointset/knee_r/knee_rotation_r/accel	/jointset/ankle_r/ankle_angle_r/accel	/jointset/subtalar_r/subtalar_angle_r/accel	gamma_cid13_p0	gamma_cid14_p0	gamma_cid14_p1	gamma_cid14_p2	gamma_cid14_p3	gamma_cid14_p4	gamma_cid14_p5
0	0.02625418868847111	0.08098611739892433	0.9451870798317362	0.1762555222360518	-0.2071429930435194	-0.06695153708429089	-0.038598046466844	0.0731786387345339	0.07317863873451017	0.1125624412114068	-0.02240744555051956	0.03247278518263602	0.02073525535628284	0	0	0	0	0	0	0	0	0	0	0	0	0	0.2737471104442418	-0.09089034982721521	0.03526934030645924	-0.2600786234225478	0.2519932294248787	-0.1063491626855771	-0.2563662566808338	-35.11114901548096	50.6259229220797	-43.90169055482352	14.97330657010814	-20.94453099356113	-402.1356694589499	26.12197562479736	32.84683960987703	-7.09188864822402	-1.187792894844771	27.17602828141488	12.88909227606831	-3.653834841241508	-63.16585001967542	98.78845222881402	98.78845222881404	-31.66818225186218	22.01385633225102	42.48104365873819	24.66749275308855	1.563509664288582e-05	2.607520501042887e-05	-8.445645606491971e-05	0.0001065395409826888	-2.956037393994277e-07	0.000122647219933972	-0.0001342080021479361
0.01	0.02756584544077692	0.08065213743340457	0.9451300230185919	0.1776445168217691	-0.2064206795271946	-0.06710296785760908	-0.04133294683486108	0.07755454296670314	0.07755454296670204	0.1108549975892985	-0.02149561417931651	0.03433395761062758	0.02198626340843353	0.2244390780431678	-0.0648866913939686	-0.01241849987841806	0.2889829743645483	0.1518296877928956	-0.03595387009495	-0.4996778503210043	0.8240401126175215	0.8240401126175214	-0.3541155131515643	0.1714290346331752	0.3475603557308151	0.2525556138543569	0.3275117314842327	-0.05536551333813632	0.02359027636694602	-0.3909442065091492	0.3681190206669908	-0.1125032015809084	-0.2586155090161922	-35.27234012437797	78.05237631126691	-44.66265605842219	18.39597879602049	-13.76476611152987	-544.9838980187759	29.33529993727874	11.56028981284818	-5.900723249687259	-1.395419677785498	31.44070673766905	17.44320248560572	-4.397460481223733	-36.27341904569691	66.53755368707837	66.53755368707837	-39.17598283858501	13.08624448210268	27.19476982023055	25.90165485463124	3.656552105402873e-07	-6.016109094362905e-06	-8.388882151330707e-05	0.0001100541867361956	3.255880887673844e-07	9.622508011263832e-05	-0.0001511776778473126
0.02	0.02998546255574528	0.07972655778100395	0.9449234729779716	0.1822595960958538	-0.2039574100420014	-0.06778019680939622	-0.04764555900758524	0.08863600090679996	0.08863600090680346	0.1052278494373375	-0.01919372897112709	0.03893098125391981	0.02583323942973299	0.2215920725389081	-0.1183199373761755	-0.02989864549522528	0.6452169376768784	0.3481911937740105	-0.1051596356939792	-0.7155423609373421	1.341110741589334	1.341110741589334	-0.7839409059743849	0.2780107673964278	0.5471702430607244	0.5191935938295924	0.381276352524103	-0.01984067684902693	0.0119112124274354	-0.5218097895958886	0.4842448119090502	-0.1186572404762207	-0.2608647613515839	-35.66911740159627	106.3098582958513	-45.39979439332527	21.95428764187442	-8.329976854260687	-672.7241670974618	31.15550593489399	-12.61037709960817	-4.801199565871835	-2.200122042522606	40.62622607097138	21.79545591371218	-10.30421394205734	-6.403182078742073	37.39455549967233	37.39455549967233	-46.81015818611344	9.044395958266529	12.89094997855688	27.48396597726424	-1.490378622180524e-05	-3.810742319915468e-05	-8.332118696169443e-05	0.0001135688324897024	9.467799169341964e-07	6.980294029130461e-05	-0.0001681473535466891
0.03	0.03156722791130646	0.07832811361391037	0.94451124186679	0.1905416629934152	-0.1995362094634018	-0.06931035901719577	-0.05503113969554671	0.1035868872868115	0.1035868872868213	0.09534784674399643	-0.01605266970204716	0.04490986019397563	0.0322098584096484	0.09481306646838845	-0.1590085862163282	-0.05282143060836581	0.9928174228727259	0.5177483675787992	-0.1920809857087971	-0.7531554221090573	1.620298450800942	1.620298450800942	-1.154822224339273	0.340062316677667	0.6363019115415954	0.7334331125707739	0.3302110256875081	-0.04334764582838945	0.01816335703920201	-0.4937370544137907	0.4559194316854814	-0.1100509479925774	-0.2115085414301329	-36.1707093879721	98.48493024990935	-42.65970766420365	21.09182459679481	-8.372870422885988	-656.5612648211886	30.10952569669447	-12.71392992651954	-3.34845920367072	-2.365580993866408	29.06112508953687	11.80769813851223	-6.546374555248412	-1.177614954581342	18.86870854248791	18.86870854248789	-26.6364218157835	3.28516234893386	5.068977951959317	14.99094764111966	-1.277266099512378e-05	-2.873958257086875e-05	-2.248422110106315e-05	5.060903201752866e-05	8.31867134797234e-07	3.372111535746688e-05	-7.736030553717815e-05
0.04	0.03188074969299564	0.07659363062629812	0.9438643380548424	0.2017465678120546	-0.1939650671418295	-0.07144179052995604	-0.06254030035887691	0.1204672167410459	0.1204672167410473	0.08287717023619484	-0.01259116935297477	0.0514089963526598	0.04004827314069143	-0.03205664223185502	-0.1855277014799124	-0.07683318564843053	1.229784521894391	0.5781795423695926	-0.22541349668579	-0.7402583560085512	1.726999356435869	1.726999356435869	-1.302075668868441	0.3420989833941567	0.6512216867867487	0.8115527440549369	0.2791456988508463	-0.06685461480773508	0.02441550165096782	-0.4656643192317675	0.4275940514618844	-0.1014446555089231	-0.1621523215087014	-36.69870185011246	90.25238744608029	-39.98437433689804	20.23248074518643	-8.805584825026312	-647.3874931755619	27.49572293399414	-12.62851762555248	-1.967292850558245	-2.417916027907451	18.49954883613512	-0.02974388908681566	0.4135538655077016	3.69884337570231	2.897194784336152	2.897194784336152	-2.084583418969381	-2.958580554683331	-1.951428668586753	0.2599885258605164	-1.02827611981531e-05	-1.851691400994202e-05	3.959541138449636e-05	-1.372137559331892e-05	7.01776938014833e-07	-2.559878341577151e-06	1.564853059004184e-05
0.05	0.03095055171076218	0.07465216382498825	0.9429817228403845	0.2148654577881584	-0.1882116274319902	-0.0737153450234173	-0.06973731424060667	0.1377677107656147	0.1377677107656239	0.06981488773562253	-0.009292032186310525	0.05778151699262371	0.04813629692438993	-0.1518556228900873	-0.2016319204099492	-0.09896297206794878	1.384901675745017	0.5696043189308695	-0.2278989192017064	-0.6971614413751791	1.723609342460984	1.723609342460984	-1.303470927709904	0.3162003335623543	0.61998053218316	0.8017555592947506	0.250006036326222	-0.05817581403684662	0.02598066378453107	-0.4547880799066741	0.4157081639829271	-0.09586624314193555	-0.1333346219183799	-37.20222465668718	85.92359349126495	-38.16485646068018	19.76563612432502	-10.96605034922463	-658.6797590074235	26.25971782688565	-11.33917019959482	-1.261786354581305	-2.002282328122539	12.65127250278875	-1.702580864523498	-0.3737125653471371	4.91256235118975	-3.378578958719279	-3.378578958719322	1.875092615629975	-2.638766723648724	-4.209907131179105	-2.238947389469135	-7.61651533771656e-06	-1.310990836103215e-05	3.971055396235578e-05	-1.937146276979675e-05	6.656822937418798e-07	-6.20804143514094e-06	2.446066522004498e-05
